<svg width="24" height="24" viewBox="0 0 24 24" fill="none" xmlns="http://www.w3.org/2000/svg">
<path d="M14.97 17.144H9.02148V6.45349H14.97V17.144Z" fill="#FF5F00"/>
<path d="M9.40305 11.7989C9.40305 9.63032 10.4184 7.69857 11.9996 6.45367C10.8433 5.54334 9.38403 5 7.79809 5C4.04351 5 1 8.04394 1 11.7989C1 15.554 4.04351 18.5979 7.79809 18.5979C9.38403 18.5979 10.8433 18.0546 11.9996 17.1442C10.4184 15.8993 9.40305 13.9676 9.40305 11.7989Z" fill="#EB001B"/>
<path d="M22.9939 11.7989C22.9939 15.554 19.9504 18.5979 16.1958 18.5979C14.6098 18.5979 13.1506 18.0546 11.9938 17.1442C13.5755 15.8993 14.5908 13.9676 14.5908 11.7989C14.5908 9.63032 13.5755 7.69857 11.9938 6.45367C13.1506 5.54334 14.6098 5 16.1958 5C19.9504 5 22.9939 8.04394 22.9939 11.7989Z" fill="#F79E1B"/>
<path d="M21.7961 15.8293L21.5805 14.7512H19.1712L18.7879 15.8217L16.8568 15.8255C17.7761 13.6148 18.6974 11.4048 19.6207 9.19575C19.7778 8.82104 20.0567 8.63033 20.4678 8.63225C20.7822 8.63513 21.2949 8.63512 22.0069 8.63321L23.5 15.8265L21.7961 15.8293ZM19.7136 13.2744H21.2661L20.6863 10.5719L19.7136 13.2744ZM7.26583 8.63129L9.20742 8.63321L6.20592 15.8303L4.24038 15.8284C3.74611 13.9273 3.258 12.0247 2.77604 10.1205C2.68021 9.74104 2.49046 9.47558 2.12533 9.35004C1.80046 9.23792 1.259 9.06542 0.5 8.83063V8.63417H3.60212C4.13879 8.63417 4.45217 8.89388 4.55279 9.42671C4.65438 9.9605 4.90929 11.3194 5.31946 13.5035L7.26583 8.63129ZM11.8754 8.63321L10.3402 15.8284L8.4925 15.8265L10.0258 8.63129L11.8754 8.63321ZM15.6225 8.5C16.1755 8.5 16.8722 8.6725 17.2728 8.83063L16.9488 10.3228C16.5866 10.1771 15.9905 9.98063 15.4893 9.98733C14.761 9.99979 14.3105 10.3055 14.3105 10.5988C14.3105 11.076 15.0925 11.3165 15.8975 11.8379C16.8166 12.432 16.9373 12.9658 16.9258 13.5456C16.9134 14.7493 15.8975 15.9367 13.7547 15.9367C12.7772 15.9223 12.4245 15.8399 11.6272 15.5572L11.9645 13.9999C12.7762 14.3401 13.1203 14.4484 13.8141 14.4484C14.4495 14.4484 14.9948 14.1915 14.9996 13.744C15.0034 13.4258 14.8079 13.2677 14.0949 12.8748C13.3819 12.4809 12.3814 11.9356 12.3948 10.8412C12.4111 9.44012 13.7384 8.5 15.6235 8.5H15.6225Z" fill="white"/>
</svg>
